<svg width="1098" height="1094" viewBox="0 0 1098 1094" fill="none" xmlns="http://www.w3.org/2000/svg">
<path d="M513.339 1.17468C398.006 9.17468 275.339 60.108 187.339 136.508C172.139 149.708 144.406 177.575 131.606 192.508C62.2725 273.575 18.2725 372.641 4.67249 478.641C-7.46085 573.175 4.13915 668.908 38.2725 755.041C74.2725 846.241 142.539 933.841 221.339 989.975C329.073 1066.91 462.006 1103.71 588.672 1091.57C715.606 1079.57 839.473 1024.91 926.273 942.508C1006.54 866.508 1054.81 785.975 1080.67 684.375C1106.54 582.908 1102.27 473.441 1068.54 373.841C1042.27 296.775 1001.61 229.841 946.139 172.775C909.206 134.775 873.873 106.241 833.606 82.108C733.072 21.9746 621.339 -6.29198 513.339 1.17468ZM539.339 547.975V1038.37L521.073 1037.84C451.339 1034.37 380.939 1015.44 315.073 982.241C271.473 960.375 233.739 932.775 197.739 896.241C178.272 876.375 170.806 867.975 157.473 850.375C103.873 780.375 73.4725 705.841 61.0725 615.041C57.6058 589.708 57.7392 513.441 61.0725 487.041C76.1392 372.108 126.139 273.308 209.339 194.241C260.139 146.108 324.539 107.841 394.673 84.3746C438.806 69.4413 497.473 57.8413 530.939 57.1747L539.339 57.0413V547.975ZM596.006 59.8413C664.006 67.708 750.672 99.5747 810.672 138.508C815.872 141.975 822.673 146.375 826.006 148.375C850.939 163.841 891.206 198.775 914.672 225.041C984.406 303.441 1022.94 388.641 1036.14 493.708C1038.67 514.375 1039.07 566.641 1036.81 591.708C1033.87 623.041 1027.21 660.508 1019.87 685.708C999.206 757.041 967.206 813.041 913.073 872.375C900.273 886.375 870.006 914.375 858.406 922.775C856.139 924.375 849.873 929.041 844.539 933.175C771.873 987.975 684.673 1022.64 588.273 1035.04C579.606 1036.11 570.806 1037.04 568.539 1037.04L539.339 1038.37V1017.37C539.339 1000.71 537.506 1008.87 574.139 1005.04C577.072 1005.04 580.806 1001.31 595.073 984.775C604.539 973.575 613.472 963.175 614.939 961.708C616.272 960.241 635.606 937.708 657.872 911.708C680.272 885.708 701.339 861.041 704.939 856.775L711.472 849.308L708.006 844.241C706.139 841.575 704.672 838.775 704.672 837.975C704.672 837.308 702.539 837.041 699.739 837.441C696.939 837.841 667.339 842.108 634.006 846.908C600.672 851.708 571.339 855.841 569.073 856.241L564.672 856.908V849.975V843.041L634.406 833.175L704.006 823.441L706.539 818.108C710.139 810.375 718.006 805.708 727.206 805.708C731.339 805.708 736.139 806.241 738.006 806.775C741.073 807.708 742.939 805.975 761.472 784.775C772.539 772.108 783.206 759.841 785.206 757.441L788.672 753.308L785.339 748.241C783.473 745.441 781.606 741.841 781.206 740.108C780.672 738.375 780.006 737.041 779.606 737.041C779.206 737.041 761.472 739.175 740.139 741.708C706.406 745.708 607.072 757.308 576.006 760.775C570.139 761.441 564.939 761.841 564.539 761.575C564.139 761.441 563.872 754.375 564.006 746.108L564.272 731.041L573.606 715.041C600.673 668.775 602.273 665.841 600.806 663.708C593.073 653.175 590.672 646.108 591.872 636.908L592.672 630.641L579.073 622.908C571.473 618.775 564.939 614.641 564.406 613.841C563.339 612.375 562.939 598.375 563.739 598.375C564.006 598.375 569.606 601.575 576.139 605.441C582.672 609.441 590.539 613.975 593.472 615.708L599.073 618.775L603.472 615.441C610.272 610.375 617.206 608.641 626.672 609.441C634.672 610.241 635.073 610.108 636.539 606.775C637.339 604.908 650.939 580.375 666.806 552.241C682.539 523.975 695.739 500.108 696.139 499.175C696.806 497.308 685.206 491.041 608.672 451.975C560.939 427.708 564.672 430.241 564.672 422.375C564.672 418.641 565.072 415.708 565.472 415.708C566.406 415.708 622.006 444.108 650.672 459.041C658.006 462.908 671.206 469.841 680.006 474.375C688.806 479.041 697.606 483.841 699.472 485.175L703.073 487.708L709.206 476.641L715.472 465.708L712.006 459.041C707.473 449.975 707.472 441.308 712.139 432.108L715.739 425.175L703.073 409.441C687.339 389.708 652.272 345.308 640.939 330.641C636.272 324.641 631.873 319.708 631.073 319.708C627.606 319.708 620.406 315.041 618.006 311.041C614.806 305.841 617.606 305.575 586.006 315.175C575.339 318.375 566.139 321.041 565.339 321.041C564.406 321.041 564.139 318.508 564.672 314.108L565.339 307.175L577.339 303.575C584.006 301.575 594.406 298.508 600.672 296.641L612.006 293.308L587.739 268.908L563.339 244.375L563.472 238.375C563.606 225.841 563.473 225.708 591.073 253.841L616.806 279.975L620.139 276.375C621.872 274.508 625.339 272.108 627.739 271.041C631.606 269.441 632.806 267.841 635.339 260.775C639.606 249.041 664.006 186.241 675.073 159.041L684.139 136.375L682.139 131.441C680.939 128.641 679.606 126.375 679.073 126.375C678.539 126.375 670.406 129.175 661.073 132.508C651.739 135.841 632.939 142.375 619.339 147.041C605.739 151.575 588.406 157.575 580.806 160.241C573.206 162.908 566.406 165.041 565.739 165.041C565.072 165.041 564.672 161.975 564.939 158.108L565.339 151.175L581.339 145.708C590.139 142.775 615.739 133.975 638.273 126.241C660.939 118.641 679.339 111.975 679.339 111.441C679.339 109.841 654.672 102.641 632.672 97.708C611.606 93.0413 591.606 89.8413 574.406 88.2413L564.672 87.308H539.339V57.0413L564.672 56.7747L574.406 57.5747C579.606 58.108 589.472 59.0413 596.006 59.8413Z" fill="#FFFFFF"/>
<path d="M504.406 90.108C498.539 90.508 497.606 91.0413 488.139 101.175C468.672 121.841 441.339 166.241 424.139 205.041C412.272 231.841 412.539 229.841 420.939 231.708C443.472 236.508 483.206 241.041 502.672 241.041H511.339L511.606 165.575C511.872 124.108 511.739 89.9746 511.339 89.9746C510.939 89.8413 507.872 89.8413 504.406 90.108Z" fill="#FFFFFF"/>
<path d="M434.006 106.908C411.472 114.641 406.272 116.908 386.272 126.908C364.539 137.841 349.339 146.641 330.672 159.441C315.072 170.108 296.806 183.841 296.672 185.175C296.539 186.641 318.139 198.641 333.339 205.575C352.539 214.241 383.072 224.508 384.672 222.908C385.339 222.241 387.606 217.041 390.006 211.308C402.939 178.241 434.806 121.175 449.073 105.441C450.539 103.708 451.473 102.108 451.206 101.841C450.939 101.441 443.206 103.841 434.006 106.908Z" fill="#FFFFFF"/>
<path d="M226.406 215.308C190.139 249.841 153.473 300.775 132.539 345.708C104.939 405.308 91.3392 462.108 87.8725 531.975L87.0725 550.375H96.9392H106.939L107.739 529.975C111.739 435.041 143.873 340.375 201.339 254.908C210.406 241.575 222.273 225.308 234.406 209.575C238.406 204.375 236.406 205.841 226.406 215.308Z" fill="#FFFFFF"/>
<path d="M266.806 215.975C199.472 291.041 152.672 392.775 140.139 491.708C138.272 505.975 135.339 540.508 135.339 547.975C135.339 550.241 140.806 550.375 232.672 550.375C286.272 550.375 330.006 550.241 330.006 549.975C330.139 549.841 330.672 534.375 331.339 515.708C334.139 439.575 344.006 367.175 360.806 300.775C364.272 286.641 372.539 258.508 374.672 252.775C375.339 250.908 373.872 250.108 365.739 247.708C339.872 240.375 305.072 224.775 286.272 212.108C281.472 209.041 277.206 206.375 276.539 206.375C276.006 206.375 271.606 210.775 266.806 215.975ZM227 397C232.2 403.667 239.072 403.308 232.406 397.975C228.406 394.908 228.272 390.641 232.006 387.041C235.606 383.308 223.8 393 227 397ZM274.817 397.975C278.417 402.508 276.5 392.633 272.5 396.5C268.633 400.5 281.872 405.841 278.272 402.641C273.739 398.775 273.339 394.908 277.206 391.041C281.472 386.775 271.35 393.575 274.817 397.975ZM200.5 441C201.967 442.467 204.672 445.133 204.672 447C204.672 451 217.739 447.708 214.006 447.708C211.072 447.708 204.672 442.241 204.672 439.708C204.672 437.575 207.472 432.641 209.206 431.441C211.872 429.575 197.833 438.333 200.5 441ZM246.672 465.708C252.672 471.575 237.267 452 229 452C225 452 236.272 479.041 234.806 475.575C232.672 470.508 233.339 466.908 237.072 464.375C241.072 461.575 242.939 461.841 246.672 465.708Z" fill="#FFFFFF"/>
<path d="M398.673 271.841C377.206 338.508 362.673 431.308 359.873 520.641L358.939 550.375H435.206H511.339V410.375C511.339 333.308 511.206 270.375 511.073 270.375C479.739 269.308 445.339 265.441 420.273 260.375C411.339 258.508 403.873 257.041 403.739 257.041C403.606 257.041 401.339 263.708 398.673 271.841Z" fill="#FFFFFF"/>
<path d="M88.6724 585.308C88.8057 613.841 99.8724 671.175 112.406 707.841C120.806 732.108 122.806 737.041 134.672 760.641C158.406 808.375 190.806 851.708 230.672 889.041C237.339 895.308 237.872 895.575 234.272 891.041C183.872 828.241 156.806 780.375 134.006 713.575C120.539 674.108 107.339 610.241 107.339 584.108V578.375H98.0057H88.6724V585.308Z" fill="#FFFFFF"/>
<path d="M135.872 581.308C136.272 583.041 136.939 589.175 137.339 595.041C138.672 613.308 145.739 651.308 152.139 675.041C174.139 757.041 211.872 825.175 271.739 890.641C279.472 899.175 288.539 908.241 291.739 910.908L297.606 915.708L323.472 902.641C337.739 895.441 358.406 885.975 369.339 881.708C380.406 877.441 389.739 873.441 390.406 873.041C390.939 872.641 388.406 864.375 384.806 854.908C357.606 783.841 337.072 682.375 331.872 593.975L330.939 578.375H233.072H135.339L135.872 581.308ZM272 683C277.067 688.067 297.733 685.5 290 685.5C283.867 685.5 277.739 676.375 281.206 671.041C284.006 666.775 268.133 679.133 272 683ZM223.5 675.5C225.367 677.767 223.533 670.267 223 672C221.933 675.6 224.7 681 221.5 681C217.9 681 227.339 684.241 227.339 680.108C227.339 671.841 218.433 668.967 223.5 675.5ZM244.939 717.975C250.006 722.508 243.8 712.5 237 712.5C230.2 712.5 229.339 724.775 232.672 718.241C234.406 715.041 241.472 714.775 244.939 717.975ZM265.339 750C268.006 752.4 260.5 742 258.5 746C256.367 749.867 268.006 767.308 265.339 763.175C260.006 755.175 258.272 743.6 265.339 750Z" fill="#FFFFFF"/>
<path d="M359.339 580.241C359.339 592.108 364.806 643.975 369.472 677.041C377.739 735.308 394.006 800.641 412.272 848.375C414.806 854.908 417.339 860.775 417.872 861.441C418.406 861.975 423.339 860.908 428.806 859.041C449.472 851.841 481.606 844.508 504.406 841.708L511.339 840.775V709.575V578.375H435.339C372.272 578.375 359.339 578.641 359.339 580.241Z" fill="#FFFFFF"/>
<path d="M501.606 869.175C482.672 871.975 428.672 886.775 428.672 889.175C428.672 891.175 455.206 942.241 462.539 954.375C471.472 968.908 482.272 984.775 491.739 996.641C496.806 1003.17 499.072 1005.04 501.739 1005.04C503.739 1005.04 506.672 1005.44 508.406 1005.84L511.339 1006.64V937.175C511.339 899.041 510.939 867.841 510.406 867.841C509.739 867.975 505.872 868.508 501.606 869.175Z" fill="#FFFFFF"/>
<path d="M382.672 906.375C353.072 919.041 323.072 934.508 324.806 936.241C325.072 936.508 332.272 941.041 340.672 946.375C358.006 957.041 386.539 971.441 407.339 979.708C422.406 985.841 455.606 997.308 456.139 996.641C456.406 996.375 454.139 992.641 451.206 988.375C440.406 972.241 428.006 950.508 415.206 924.775C407.872 910.241 401.872 898.375 401.606 898.375C401.472 898.375 392.939 901.975 382.672 906.375Z" fill="#FFFFFF"/>
<path d="M722.139 133.841C718.539 139.841 709.472 144.108 701.606 143.441L696.006 143.041L690.939 155.708C678.139 187.308 651.339 255.841 649.339 262.108C648.006 265.975 647.339 269.441 647.606 269.841C648.539 270.641 653.206 267.975 677.339 253.041C696.939 240.908 744.672 212.241 778.672 192.375C807.739 175.308 807.339 175.575 807.339 174.641C807.339 173.308 779.206 155.575 764.006 147.441C751.472 140.641 727.339 129.041 725.739 129.041C725.206 129.041 723.739 131.175 722.139 133.841Z" fill="#FFFFFF"/>
<path d="M736.006 233.441C697.873 256.375 665.073 276.241 663.073 277.708C659.473 280.375 658.273 284.241 660.539 285.708C662.673 287.041 663.606 297.575 662.139 303.308C661.206 306.775 658.673 310.508 654.939 313.975L649.073 319.308L651.873 323.175C653.339 325.308 665.206 340.241 678.006 356.375C690.939 372.508 704.406 389.575 708.006 394.375C718.139 407.575 727.473 418.375 728.939 418.375C729.606 418.375 731.206 415.841 732.673 412.641C734.006 409.575 744.006 386.375 755.073 361.041C766.006 335.708 785.339 291.441 797.739 262.641L820.539 210.241L815.339 205.575C812.539 202.908 809.473 198.775 808.673 196.241C807.873 193.708 806.673 191.708 806.273 191.708C805.739 191.708 774.139 210.508 736.006 233.441Z" fill="#FFFFFF"/>
<path d="M852.006 207.575C850.806 209.575 839.472 214.375 836.139 214.375C834.006 214.375 832.539 216.375 829.472 223.441C827.339 228.375 819.339 246.775 811.606 264.375C763.872 374.375 748.006 411.175 746.672 415.441C746.006 417.575 746.406 418.641 748.272 419.308C753.472 421.175 759.339 426.908 762.139 432.641C768.272 445.441 764.539 460.108 752.939 468.241C748.272 471.575 745.606 472.375 737.206 473.041L727.072 473.708L721.872 482.241C718.939 487.041 716.672 491.575 716.672 492.375C716.672 493.308 727.072 499.308 739.739 505.708C752.272 512.241 769.339 520.908 777.472 525.041L792.272 532.641L794.806 527.175C798.406 519.308 806.939 513.708 815.739 513.575C820.139 513.441 825.606 511.975 830.672 509.708C837.339 506.641 895.072 483.708 896.139 483.708C897.072 483.708 898.939 475.841 898.139 474.775C897.339 473.575 869.472 450.775 842.272 429.175L829.739 419.308L825.206 421.575C811.872 427.841 796.272 419.708 794.406 405.308C792.806 393.708 802.672 382.508 814.272 382.375C818.539 382.241 818.806 381.975 826.672 365.308C831.072 355.975 846.406 324.108 860.939 294.508C875.472 264.908 887.339 240.375 887.339 239.975C887.339 238.908 865.739 217.041 859.072 211.575C855.606 208.641 852.539 206.908 852.006 207.575Z" fill="#FFFFFF"/>
<path d="M874.672 296.508C862.539 321.175 852.672 341.708 852.672 341.841C852.672 342.108 848.406 350.908 843.206 361.308C838.006 371.841 832.939 382.641 831.872 385.308C830.272 389.841 830.406 390.375 832.272 390.375C833.339 390.375 855.606 380.375 881.472 368.108L928.539 345.841L929.472 339.708C930.672 331.041 933.472 325.041 938.806 319.575C944.406 313.841 944.672 315.041 932.272 296.375C918.939 276.375 902.272 254.908 898.539 252.641C897.206 251.841 891.206 262.775 874.672 296.508Z" fill="#FFFFFF"/>
<path d="M632.139 287.841C629.472 289.975 628.672 291.708 628.672 295.708C628.672 299.708 629.472 301.441 632.139 303.575C639.339 309.308 648.672 304.908 648.672 295.841C648.672 286.508 639.606 281.975 632.139 287.841Z" fill="#FFFFFF"/>
<path d="M901.339 373.308C884.539 381.308 862.673 391.841 852.806 396.508L834.939 405.041L837.473 407.975C838.806 409.441 845.739 415.308 852.673 420.908C859.606 426.375 873.739 437.841 884.006 446.241C894.273 454.508 903.339 461.975 904.273 462.641C905.206 463.441 907.073 463.041 909.206 461.708C910.939 460.508 915.206 459.041 918.406 458.641C923.739 457.841 925.206 456.775 932.806 447.575C937.473 441.975 950.139 427.308 960.939 414.908L980.406 392.241L977.739 384.241L974.939 376.375H964.139C954.673 376.375 952.539 375.841 947.073 372.641C943.606 370.641 939.206 366.641 937.073 363.708C935.073 360.775 933.073 358.508 932.673 358.508C932.273 358.641 918.273 365.175 901.339 373.308Z" fill="#FFFFFF"/>
<path d="M984.006 408.241C983.206 409.308 975.206 418.775 966.006 429.308C956.806 439.708 946.406 451.841 942.939 456.108L936.806 463.708L940.006 468.508C941.873 471.175 943.339 474.508 943.339 475.841C943.339 478.908 944.539 479.175 969.206 481.708C995.206 484.375 995.339 484.375 999.206 479.575L1002.41 475.575L998.806 457.308C994.673 436.508 987.739 408.908 986.273 407.441C985.739 406.908 984.673 407.308 984.006 408.241Z" fill="#FFFFFF"/>
<path d="M729.206 435.441C722.539 440.775 721.606 448.108 726.806 454.241C729.739 457.708 731.206 458.375 736.273 458.375C741.206 458.375 742.939 457.708 746.139 454.241C751.473 448.641 751.473 442.241 746.139 436.908C741.473 432.375 733.739 431.708 729.206 435.441Z" fill="#FFFFFF"/>
<path d="M939.472 496.908C932.272 506.908 915.339 507.841 905.739 498.775L902.272 495.441L885.072 502.241C875.739 505.841 860.806 511.708 852.006 515.175C843.206 518.641 835.872 521.575 835.606 521.708C835.472 521.841 836.806 525.308 838.672 529.441C843.339 539.441 842.006 547.708 834.539 555.708L831.472 559.041L839.739 564.641C844.272 567.575 858.806 577.175 872.006 585.841L896.006 601.441L906.272 601.708L916.672 602.108L934.406 583.175C944.139 572.908 956.272 559.841 961.339 554.375C966.272 548.908 976.672 537.575 984.406 529.308L998.406 514.241L995.606 509.175C994.006 506.375 992.672 502.508 992.672 500.508C992.672 498.641 991.872 497.041 991.072 497.041C990.139 497.041 980.672 496.108 970.006 495.041C942.806 492.375 942.672 492.375 939.472 496.908Z" fill="#FFFFFF"/>
<path d="M706.273 509.308C704.806 511.708 696.539 526.641 687.739 542.375C678.939 558.108 665.873 581.441 658.806 593.975C651.739 606.641 646.006 617.308 646.006 617.708C646.006 617.975 647.739 621.041 650.006 624.508C652.539 628.641 654.273 633.308 654.806 638.375L655.606 645.975L665.206 650.508C682.006 658.775 758.273 697.308 771.739 704.508L784.939 711.575L789.339 707.175C791.873 704.641 796.939 701.575 800.673 700.375C804.406 699.175 807.739 697.441 808.006 696.508C808.273 695.708 808.806 665.308 809.206 628.908L810.006 562.641L806.806 561.841C802.273 560.775 796.006 555.175 794.139 550.775C792.939 547.975 789.339 545.441 779.073 540.375C771.606 536.641 753.206 527.308 738.139 519.308C723.073 511.441 710.406 505.041 709.873 505.041C709.339 505.041 707.739 507.041 706.273 509.308Z" fill="#FFFFFF"/>
<path d="M986.673 545.841C975.739 557.975 957.473 577.841 946.406 590.108C935.206 602.375 926.006 613.308 926.006 614.508C926.006 615.708 926.806 617.308 927.739 618.108C929.339 619.441 997.873 633.708 998.673 632.775C999.339 631.975 1004.54 598.108 1006.01 584.241C1007.61 569.041 1008.81 523.708 1007.47 523.841C1007.07 523.841 997.739 533.841 986.673 545.841Z" fill="#FFFFFF"/>
<path d="M813.206 529.041C809.473 530.508 806.006 535.441 806.006 539.441C806.006 543.708 811.739 549.041 816.273 549.041C820.673 549.041 822.006 548.108 825.073 543.708C828.139 539.308 827.873 536.508 824.406 532.508C820.806 528.641 817.073 527.441 813.206 529.041Z" fill="#FFFFFF"/>
<path d="M823.206 588.641C823.206 598.775 822.672 627.708 822.139 653.041C821.072 698.108 821.339 702.375 825.206 702.375C826.406 702.375 844.806 682.775 882.406 641.575C887.339 635.975 887.339 635.975 885.739 629.841C884.539 625.175 884.539 622.375 885.606 618.108C887.472 611.041 887.339 610.908 873.339 601.841C848.806 585.841 824.672 570.375 824.006 570.375C823.606 570.375 823.339 578.641 823.206 588.641Z" fill="#FFFFFF"/>
<path d="M617.206 626.908C611.206 629.575 608.672 633.975 608.672 641.308C608.672 646.508 609.472 648.508 612.539 651.975C616.006 655.841 617.206 656.375 623.339 656.375C629.606 656.375 630.672 655.975 634.939 651.175C639.206 646.508 639.606 645.575 638.939 640.108C637.739 629.175 626.806 622.641 617.206 626.908Z" fill="#FFFFFF"/>
<path d="M923.606 635.975C920.406 641.441 911.206 645.575 903.872 644.641L898.006 643.975L886.272 656.908C871.072 673.708 846.672 700.375 840.806 706.641L836.272 711.575L838.672 717.175C840.139 720.108 841.472 725.041 841.872 727.975L842.672 733.308L874.939 747.708L907.072 761.975L912.139 756.641C919.206 749.308 926.006 746.375 937.072 746.375C944.139 746.375 947.606 747.175 952.806 749.841C956.539 751.708 959.872 753.041 960.139 752.775C961.472 751.308 974.406 722.641 979.739 709.041C988.006 687.975 988.272 686.641 984.806 684.241C974.539 677.041 974.139 656.375 984.006 647.175L987.339 643.975L974.406 641.708C967.206 640.508 953.339 637.841 943.606 635.841L925.872 632.241L923.606 635.975Z" fill="#FFFFFF"/>
<path d="M646.673 663.308C640.939 670.241 633.206 673.308 622.539 672.908L613.739 672.641L608.406 681.841C605.339 686.908 598.273 699.175 592.673 709.041C587.073 718.908 579.606 731.841 576.139 737.575L569.873 748.108L577.606 747.175C628.406 741.175 661.339 737.308 710.673 731.708C742.939 727.975 771.739 724.508 774.673 723.975C780.006 723.041 779.206 722.641 716.673 691.041C681.873 673.441 652.806 658.908 652.006 658.775C651.339 658.641 648.939 660.641 646.673 663.308Z" fill="#FFFFFF"/>
<path d="M802.406 718.375C796.272 721.975 794.139 729.575 797.339 736.241C802.672 747.441 817.472 747.841 823.872 737.041C827.472 730.908 826.672 725.441 821.472 720.241C816.139 714.908 809.206 714.108 802.406 718.375Z" fill="#FFFFFF"/>
<path d="M835.473 750.241C829.606 758.508 814.806 763.841 805.473 761.175L800.673 759.975L788.939 773.308C782.539 780.775 775.206 789.308 772.673 792.241C770.139 795.308 764.006 802.375 758.939 807.975L749.873 818.241L751.339 823.841C753.606 832.108 750.939 841.441 744.539 847.841C739.606 852.775 730.272 856.641 726.539 855.175C724.806 854.508 715.606 864.241 693.872 889.708C682.939 902.641 670.539 916.908 626.272 968.375C610.539 986.508 598.006 1001.44 598.272 1001.71C599.072 1002.37 635.339 994.508 653.339 989.708C688.272 980.508 723.872 967.975 724.272 964.775C724.406 963.841 724.939 960.108 725.339 956.641C726.406 948.908 732.139 941.708 740.406 938.108C743.473 936.775 746.006 934.775 746.006 933.841C746.006 931.708 761.339 881.841 763.339 877.175C764.539 874.375 764.139 873.041 760.806 868.241C755.073 860.375 754.939 850.508 760.539 842.775C766.939 833.841 778.539 830.508 787.206 835.041C790.939 836.908 791.739 836.508 820.139 820.908C836.139 812.108 861.072 798.641 875.606 790.775C890.139 783.041 902.006 776.241 902.006 775.441C902.006 774.775 897.072 771.975 891.072 769.175C879.206 763.708 839.339 746.375 838.673 746.375C838.406 746.375 836.939 748.108 835.473 750.241Z" fill="#FFFFFF"/>
<path d="M930.406 767.041C925.339 769.175 920.673 776.108 920.673 781.441C920.673 787.175 924.139 793.441 928.806 796.241C932.673 798.508 932.939 798.508 935.473 796.241C936.939 794.908 940.939 789.441 944.139 784.108C951.073 773.175 951.073 770.508 944.139 767.175C938.673 764.641 936.006 764.508 930.406 767.041Z" fill="#FFFFFF"/>
<path d="M872.006 807.841C855.872 816.641 832.939 829.308 821.072 835.975L799.339 848.108V854.775C799.339 859.041 798.272 863.175 796.539 866.375C793.472 871.841 785.606 877.041 780.272 877.041C777.072 877.041 776.539 877.975 774.006 886.641C772.406 891.975 770.672 897.841 770.006 899.708C769.339 901.575 766.672 910.241 764.006 919.041C761.339 927.841 758.939 935.841 758.672 936.775C758.272 937.708 759.072 938.908 760.406 939.308C761.606 939.708 763.872 941.175 765.339 942.508C767.872 944.775 768.672 944.375 789.472 931.308C801.339 923.841 815.072 914.775 820.139 911.175C832.939 901.975 856.406 883.841 857.339 882.375C857.739 881.841 857.072 879.575 856.006 877.575C847.872 861.975 863.072 841.175 881.206 842.775C884.939 843.041 889.206 843.708 890.672 844.108C892.806 844.775 896.139 841.841 906.939 830.108L920.539 815.175L914.272 809.041C910.806 805.575 906.806 800.375 905.472 797.308C904.006 794.241 902.539 791.708 902.139 791.708C901.739 791.708 888.139 799.041 872.006 807.841Z" fill="#FFFFFF"/>
<path d="M720.939 824.108C717.473 827.708 717.206 832.641 720.006 836.641C725.206 844.108 737.873 839.708 738.006 830.241C738.006 821.975 726.806 817.841 720.939 824.108Z" fill="#FFFFFF"/>
</svg>
