<svg width="3299" height="1095" viewBox="0 0 3299 1095" fill="none" xmlns="http://www.w3.org/2000/svg">
<path d="M1600.33 1.80005C1485 9.80005 1362.33 60.7334 1274.33 137.133C1259.13 150.333 1231.4 178.2 1218.6 193.133C1149.27 274.2 1105.27 373.267 1091.67 479.267C1079.53 573.8 1091.13 669.533 1125.27 755.667C1161.27 846.867 1229.53 934.467 1308.33 990.6C1416.07 1067.53 1549 1104.33 1675.67 1092.2C1802.6 1080.2 1926.47 1025.53 2013.27 943.133C2093.53 867.133 2141.8 786.6 2167.67 685C2193.53 583.533 2189.27 474.067 2155.53 374.467C2129.27 297.4 2088.6 230.467 2033.13 173.4C1996.2 135.4 1960.87 106.867 1920.6 82.7333C1820.07 22.6 1708.33 -5.66662 1600.33 1.80005ZM1626.33 548.6V1039L1608.07 1038.47C1538.33 1035 1467.93 1016.07 1402.07 982.867C1358.47 961 1320.73 933.4 1284.73 896.867C1265.27 877 1257.8 868.6 1244.47 851C1190.87 781 1160.47 706.467 1148.07 615.667C1144.6 590.333 1144.73 514.067 1148.07 487.667C1163.13 372.733 1213.13 273.933 1296.33 194.867C1347.13 146.733 1411.53 108.467 1481.67 85C1525.8 70.0667 1584.47 58.4667 1617.93 57.8L1626.33 57.6666V548.6ZM1683 60.4667C1751 68.3333 1837.67 100.2 1897.67 139.133C1902.87 142.6 1909.67 147 1913 149C1937.93 164.467 1978.2 199.4 2001.67 225.667C2071.4 304.067 2109.93 389.267 2123.13 494.333C2125.67 515 2126.07 567.267 2123.8 592.333C2120.87 623.667 2114.2 661.133 2106.87 686.333C2086.2 757.667 2054.2 813.667 2000.07 873C1987.27 887 1957 915 1945.4 923.4C1943.13 925 1936.87 929.667 1931.53 933.8C1858.87 988.6 1771.67 1023.27 1675.27 1035.67C1666.6 1036.73 1657.8 1037.67 1655.53 1037.67L1626.33 1039V1018C1626.33 1001.33 1624.5 1009.5 1661.13 1005.67C1664.07 1005.67 1667.8 1001.93 1682.07 985.4C1691.53 974.2 1700.47 963.8 1701.93 962.333C1703.27 960.867 1722.6 938.333 1744.87 912.333C1767.27 886.333 1788.33 861.667 1791.93 857.4L1798.47 849.933L1795 844.867C1793.13 842.2 1791.67 839.4 1791.67 838.6C1791.67 837.933 1789.53 837.667 1786.73 838.067C1783.93 838.467 1754.33 842.733 1721 847.533C1687.67 852.333 1658.33 856.467 1656.07 856.867L1651.67 857.533V850.6V843.667L1721.4 833.8L1791 824.067L1793.53 818.733C1797.13 811 1805 806.333 1814.2 806.333C1818.33 806.333 1823.13 806.867 1825 807.4C1828.07 808.333 1829.93 806.6 1848.47 785.4C1859.53 772.733 1870.2 760.467 1872.2 758.067L1875.67 753.933L1872.33 748.867C1870.47 746.067 1868.6 742.467 1868.2 740.733C1867.67 739 1867 737.667 1866.6 737.667C1866.2 737.667 1848.47 739.8 1827.13 742.333C1793.4 746.333 1694.07 757.933 1663 761.4C1657.13 762.067 1651.93 762.467 1651.53 762.2C1651.13 762.067 1650.87 755 1651 746.733L1651.27 731.667L1660.6 715.667C1687.67 669.4 1689.27 666.467 1687.8 664.333C1680.07 653.8 1677.67 646.733 1678.87 637.533L1679.67 631.267L1666.07 623.533C1658.47 619.4 1651.93 615.267 1651.4 614.467C1650.33 613 1649.93 599 1650.73 599C1651 599 1656.6 602.2 1663.13 606.067C1669.67 610.067 1677.53 614.6 1680.47 616.333L1686.07 619.4L1690.47 616.067C1697.27 611 1704.2 609.267 1713.67 610.067C1721.67 610.867 1722.07 610.733 1723.53 607.4C1724.33 605.533 1737.93 581 1753.8 552.867C1769.53 524.6 1782.73 500.733 1783.13 499.8C1783.8 497.933 1772.2 491.667 1695.67 452.6C1647.93 428.333 1651.67 430.867 1651.67 423C1651.67 419.267 1652.07 416.333 1652.47 416.333C1653.4 416.333 1709 444.733 1737.67 459.667C1745 463.533 1758.2 470.467 1767 475C1775.8 479.667 1784.6 484.467 1786.47 485.8L1790.07 488.333L1796.2 477.267L1802.47 466.333L1799 459.667C1794.47 450.6 1794.47 441.933 1799.13 432.733L1802.73 425.8L1790.07 410.067C1774.33 390.333 1739.27 345.933 1727.93 331.267C1723.27 325.267 1718.87 320.333 1718.07 320.333C1714.6 320.333 1707.4 315.667 1705 311.667C1701.8 306.467 1704.6 306.2 1673 315.8C1662.33 319 1653.13 321.667 1652.33 321.667C1651.4 321.667 1651.13 319.133 1651.67 314.733L1652.33 307.8L1664.33 304.2C1671 302.2 1681.4 299.133 1687.67 297.267L1699 293.933L1674.73 269.533L1650.33 245L1650.47 239C1650.6 226.467 1650.47 226.333 1678.07 254.467L1703.8 280.6L1707.13 277C1708.87 275.133 1712.33 272.733 1714.73 271.667C1718.6 270.067 1719.8 268.467 1722.33 261.4C1726.6 249.667 1751 186.867 1762.07 159.667L1771.13 137L1769.13 132.067C1767.93 129.267 1766.6 127 1766.07 127C1765.53 127 1757.4 129.8 1748.07 133.133C1738.73 136.467 1719.93 143 1706.33 147.667C1692.73 152.2 1675.4 158.2 1667.8 160.867C1660.2 163.533 1653.4 165.667 1652.73 165.667C1652.07 165.667 1651.67 162.6 1651.93 158.733L1652.33 151.8L1668.33 146.333C1677.13 143.4 1702.73 134.6 1725.27 126.867C1747.93 119.267 1766.33 112.6 1766.33 112.067C1766.33 110.467 1741.67 103.267 1719.67 98.3334C1698.6 93.6667 1678.6 90.4667 1661.4 88.8667L1651.67 87.9333H1626.33V57.6666L1651.67 57.4L1661.4 58.2001C1666.6 58.7334 1676.47 59.6667 1683 60.4667Z" fill="#FFFFFF"/>
<path d="M1591.4 90.7333C1585.53 91.1333 1584.6 91.6667 1575.13 101.8C1555.67 122.467 1528.33 166.867 1511.13 205.667C1499.27 232.467 1499.53 230.467 1507.93 232.333C1530.47 237.133 1570.2 241.667 1589.67 241.667H1598.33L1598.6 166.2C1598.87 124.733 1598.73 90.6 1598.33 90.6C1597.93 90.4667 1594.87 90.4667 1591.4 90.7333Z" fill="#FFFFFF"/>
<path d="M1521 107.533C1498.47 115.267 1493.27 117.533 1473.27 127.533C1451.53 138.467 1436.33 147.267 1417.67 160.067C1402.07 170.733 1383.8 184.467 1383.67 185.8C1383.53 187.267 1405.13 199.267 1420.33 206.2C1439.53 214.867 1470.07 225.133 1471.67 223.533C1472.33 222.867 1474.6 217.667 1477 211.933C1489.93 178.867 1521.8 121.8 1536.07 106.067C1537.53 104.333 1538.47 102.733 1538.2 102.467C1537.93 102.067 1530.2 104.467 1521 107.533Z" fill="#FFFFFF"/>
<path d="M1313.4 215.933C1277.13 250.467 1240.47 301.4 1219.53 346.333C1191.93 405.933 1178.33 462.733 1174.87 532.6L1174.07 551H1183.93H1193.93L1194.73 530.6C1198.73 435.667 1230.87 341 1288.33 255.533C1297.4 242.2 1309.27 225.933 1321.4 210.2C1325.4 205 1323.4 206.467 1313.4 215.933Z" fill="#FFFFFF"/>
<path d="M1353.8 216.6C1286.47 291.667 1239.67 393.4 1227.13 492.333C1225.27 506.6 1222.33 541.133 1222.33 548.6C1222.33 550.867 1227.8 551 1319.67 551C1373.27 551 1417 550.867 1417 550.6C1417.13 550.467 1417.67 535 1418.33 516.333C1421.13 440.2 1431 367.8 1447.8 301.4C1451.27 287.267 1459.53 259.133 1461.67 253.4C1462.33 251.533 1460.87 250.733 1452.73 248.333C1426.87 241 1392.07 225.4 1373.27 212.733C1368.47 209.667 1364.2 207 1363.53 207C1363 207 1358.6 211.4 1353.8 216.6ZM1330.07 388.067C1335.27 394.733 1326.07 403.933 1319.4 398.6C1315.4 395.533 1315.27 391.267 1319 387.667C1322.6 383.933 1326.87 384.067 1330.07 388.067ZM1375.53 391.8C1379.13 396.333 1379 398.467 1375 402.333C1371.13 406.333 1368.87 406.467 1365.27 403.267C1360.73 399.4 1360.33 395.533 1364.2 391.667C1368.47 387.4 1372.07 387.4 1375.53 391.8ZM1306.33 433.667C1307.8 435.133 1309 437.8 1309 439.667C1309 443.667 1304.73 448.333 1301 448.333C1298.07 448.333 1291.67 442.867 1291.67 440.333C1291.67 438.2 1294.47 433.267 1296.2 432.067C1298.87 430.2 1303.67 431 1306.33 433.667ZM1333.67 466.333C1339.67 472.2 1336.47 480.333 1328.2 480.333C1324.2 480.333 1323.27 479.667 1321.8 476.2C1319.67 471.133 1320.33 467.533 1324.07 465C1328.07 462.2 1329.93 462.467 1333.67 466.333Z" fill="#FFFFFF"/>
<path d="M1485.67 272.467C1464.2 339.133 1449.67 431.933 1446.87 521.267L1445.93 551H1522.2H1598.33V411C1598.33 333.933 1598.2 271 1598.07 271C1566.73 269.933 1532.33 266.067 1507.27 261C1498.33 259.133 1490.87 257.667 1490.73 257.667C1490.6 257.667 1488.33 264.333 1485.67 272.467Z" fill="#FFFFFF"/>
<path d="M1175.67 585.933C1175.8 614.467 1186.87 671.8 1199.4 708.467C1207.8 732.733 1209.8 737.667 1221.67 761.267C1245.4 809 1277.8 852.333 1317.67 889.667C1324.33 895.933 1324.87 896.2 1321.27 891.667C1270.87 828.867 1243.8 781 1221 714.2C1207.53 674.733 1194.33 610.867 1194.33 584.733V579H1185H1175.67V585.933Z" fill="#FFFFFF"/>
<path d="M1222.87 581.933C1223.27 583.667 1223.93 589.8 1224.33 595.667C1225.67 613.933 1232.73 651.933 1239.13 675.667C1261.13 757.667 1298.87 825.8 1358.73 891.267C1366.47 899.8 1375.53 908.867 1378.73 911.533L1384.6 916.333L1410.47 903.267C1424.73 896.067 1445.4 886.6 1456.33 882.333C1467.4 878.067 1476.73 874.067 1477.4 873.667C1477.93 873.267 1475.4 865 1471.8 855.533C1444.6 784.467 1424.07 683 1418.87 594.6L1417.93 579H1320.07H1222.33L1222.87 581.933ZM1381.13 671.133C1386.2 676.2 1381.93 684.333 1374.2 684.333C1368.07 684.333 1364.73 677 1368.2 671.667C1371 667.4 1377.27 667.267 1381.13 671.133ZM1328.87 675.933C1330.73 678.2 1331.4 680.467 1330.87 682.2C1329.8 685.8 1325.4 689.667 1322.2 689.667C1318.6 689.667 1314.33 684.867 1314.33 680.733C1314.33 672.467 1323.8 669.4 1328.87 675.933ZM1331.93 718.6C1337 723.133 1333.4 732.333 1326.6 732.333C1319.8 732.333 1316.33 725.4 1319.67 718.867C1321.4 715.667 1328.47 715.4 1331.93 718.6ZM1363.93 753.267C1366.6 755.667 1367 760.467 1365 764.467C1362.87 768.333 1355 767.933 1352.33 763.8C1347 755.8 1356.87 746.867 1363.93 753.267Z" fill="#FFFFFF"/>
<path d="M1446.33 580.867C1446.33 592.733 1451.8 644.6 1456.47 677.667C1464.73 735.933 1481 801.267 1499.27 849C1501.8 855.533 1504.33 861.4 1504.87 862.067C1505.4 862.6 1510.33 861.533 1515.8 859.667C1536.47 852.467 1568.6 845.133 1591.4 842.333L1598.33 841.4V710.2V579H1522.33C1459.27 579 1446.33 579.267 1446.33 580.867Z" fill="#FFFFFF"/>
<path d="M1588.6 869.8C1569.67 872.6 1515.67 887.4 1515.67 889.8C1515.67 891.8 1542.2 942.867 1549.53 955C1558.47 969.533 1569.27 985.4 1578.73 997.267C1583.8 1003.8 1586.07 1005.67 1588.73 1005.67C1590.73 1005.67 1593.67 1006.07 1595.4 1006.47L1598.33 1007.27V937.8C1598.33 899.667 1597.93 868.467 1597.4 868.467C1596.73 868.6 1592.87 869.133 1588.6 869.8Z" fill="#FFFFFF"/>
<path d="M1469.67 907C1440.07 919.667 1410.07 935.133 1411.8 936.867C1412.07 937.133 1419.27 941.667 1427.67 947C1445 957.667 1473.53 972.067 1494.33 980.333C1509.4 986.467 1542.6 997.933 1543.13 997.267C1543.4 997 1541.13 993.267 1538.2 989C1527.4 972.867 1515 951.133 1502.2 925.4C1494.87 910.867 1488.87 899 1488.6 899C1488.47 899 1479.93 902.6 1469.67 907Z" fill="#FFFFFF"/>
<path d="M1809.13 134.467C1805.53 140.467 1796.47 144.733 1788.6 144.067L1783 143.667L1777.93 156.333C1765.13 187.933 1738.33 256.467 1736.33 262.733C1735 266.6 1734.33 270.067 1734.6 270.467C1735.53 271.267 1740.2 268.6 1764.33 253.667C1783.93 241.533 1831.67 212.867 1865.67 193C1894.73 175.933 1894.33 176.2 1894.33 175.267C1894.33 173.933 1866.2 156.2 1851 148.067C1838.47 141.267 1814.33 129.667 1812.73 129.667C1812.2 129.667 1810.73 131.8 1809.13 134.467Z" fill="#FFFFFF"/>
<path d="M1823 234.067C1784.87 257 1752.07 276.867 1750.07 278.333C1746.47 281 1745.27 284.867 1747.53 286.333C1749.67 287.667 1750.6 298.2 1749.13 303.933C1748.2 307.4 1745.67 311.133 1741.93 314.6L1736.07 319.933L1738.87 323.8C1740.33 325.933 1752.2 340.867 1765 357C1777.93 373.133 1791.4 390.2 1795 395C1805.13 408.2 1814.47 419 1815.93 419C1816.6 419 1818.2 416.467 1819.67 413.267C1821 410.2 1831 387 1842.07 361.667C1853 336.333 1872.33 292.067 1884.73 263.267L1907.53 210.867L1902.33 206.2C1899.53 203.533 1896.47 199.4 1895.67 196.867C1894.87 194.333 1893.67 192.333 1893.27 192.333C1892.73 192.333 1861.13 211.133 1823 234.067Z" fill="#FFFFFF"/>
<path d="M1939 208.2C1937.8 210.2 1926.47 215 1923.13 215C1921 215 1919.53 217 1916.47 224.067C1914.33 229 1906.33 247.4 1898.6 265C1850.87 375 1835 411.8 1833.67 416.067C1833 418.2 1833.4 419.267 1835.27 419.933C1840.47 421.8 1846.33 427.533 1849.13 433.267C1855.27 446.067 1851.53 460.733 1839.93 468.867C1835.27 472.2 1832.6 473 1824.2 473.667L1814.07 474.333L1808.87 482.867C1805.93 487.667 1803.67 492.2 1803.67 493C1803.67 493.933 1814.07 499.933 1826.73 506.333C1839.27 512.867 1856.33 521.533 1864.47 525.667L1879.27 533.267L1881.8 527.8C1885.4 519.933 1893.93 514.333 1902.73 514.2C1907.13 514.067 1912.6 512.6 1917.67 510.333C1924.33 507.267 1982.07 484.333 1983.13 484.333C1984.07 484.333 1985.93 476.467 1985.13 475.4C1984.33 474.2 1956.47 451.4 1929.27 429.8L1916.73 419.933L1912.2 422.2C1898.87 428.467 1883.27 420.333 1881.4 405.933C1879.8 394.333 1889.67 383.133 1901.27 383C1905.53 382.867 1905.8 382.6 1913.67 365.933C1918.07 356.6 1933.4 324.733 1947.93 295.133C1962.47 265.533 1974.33 241 1974.33 240.6C1974.33 239.533 1952.73 217.667 1946.07 212.2C1942.6 209.267 1939.53 207.533 1939 208.2Z" fill="#FFFFFF"/>
<path d="M1961.67 297.133C1949.53 321.8 1939.67 342.333 1939.67 342.467C1939.67 342.733 1935.4 351.533 1930.2 361.933C1925 372.467 1919.93 383.267 1918.87 385.933C1917.27 390.467 1917.4 391 1919.27 391C1920.33 391 1942.6 381 1968.47 368.733L2015.53 346.467L2016.47 340.333C2017.67 331.667 2020.47 325.667 2025.8 320.2C2031.4 314.467 2031.67 315.667 2019.27 297C2005.93 277 1989.27 255.533 1985.53 253.267C1984.2 252.467 1978.2 263.4 1961.67 297.133Z" fill="#FFFFFF"/>
<path d="M1719.13 288.467C1716.47 290.6 1715.67 292.333 1715.67 296.333C1715.67 300.333 1716.47 302.067 1719.13 304.2C1726.33 309.933 1735.67 305.533 1735.67 296.467C1735.67 287.133 1726.6 282.6 1719.13 288.467Z" fill="#FFFFFF"/>
<path d="M1988.33 373.933C1971.53 381.933 1949.67 392.467 1939.8 397.133L1921.93 405.667L1924.47 408.6C1925.8 410.067 1932.73 415.933 1939.67 421.533C1946.6 427 1960.73 438.467 1971 446.867C1981.27 455.133 1990.33 462.6 1991.27 463.267C1992.2 464.067 1994.07 463.667 1996.2 462.333C1997.93 461.133 2002.2 459.667 2005.4 459.267C2010.73 458.467 2012.2 457.4 2019.8 448.2C2024.47 442.6 2037.13 427.933 2047.93 415.533L2067.4 392.867L2064.73 384.867L2061.93 377H2051.13C2041.67 377 2039.53 376.467 2034.07 373.267C2030.6 371.267 2026.2 367.267 2024.07 364.333C2022.07 361.4 2020.07 359.133 2019.67 359.133C2019.27 359.267 2005.27 365.8 1988.33 373.933Z" fill="#FFFFFF"/>
<path d="M2071 408.867C2070.2 409.933 2062.2 419.4 2053 429.933C2043.8 440.333 2033.4 452.467 2029.93 456.733L2023.8 464.333L2027 469.133C2028.87 471.8 2030.33 475.133 2030.33 476.467C2030.33 479.533 2031.53 479.8 2056.2 482.333C2082.2 485 2082.33 485 2086.2 480.2L2089.4 476.2L2085.8 457.933C2081.67 437.133 2074.73 409.533 2073.27 408.067C2072.73 407.533 2071.67 407.933 2071 408.867Z" fill="#FFFFFF"/>
<path d="M1816.2 436.067C1809.53 441.4 1808.6 448.733 1813.8 454.867C1816.73 458.333 1818.2 459 1823.27 459C1828.2 459 1829.93 458.333 1833.13 454.867C1838.47 449.267 1838.47 442.867 1833.13 437.533C1828.47 433 1820.73 432.333 1816.2 436.067Z" fill="#FFFFFF"/>
<path d="M2026.47 497.533C2019.27 507.533 2002.33 508.467 1992.73 499.4L1989.27 496.067L1972.07 502.867C1962.73 506.467 1947.8 512.333 1939 515.8C1930.2 519.267 1922.87 522.2 1922.6 522.333C1922.47 522.467 1923.8 525.933 1925.67 530.067C1930.33 540.067 1929 548.333 1921.53 556.333L1918.47 559.667L1926.73 565.267C1931.27 568.2 1945.8 577.8 1959 586.467L1983 602.067L1993.27 602.333L2003.67 602.733L2021.4 583.8C2031.13 573.533 2043.27 560.467 2048.33 555C2053.27 549.533 2063.67 538.2 2071.4 529.933L2085.4 514.867L2082.6 509.8C2081 507 2079.67 503.133 2079.67 501.133C2079.67 499.267 2078.87 497.667 2078.07 497.667C2077.13 497.667 2067.67 496.733 2057 495.667C2029.8 493 2029.67 493 2026.47 497.533Z" fill="#FFFFFF"/>
<path d="M1793.27 509.933C1791.8 512.333 1783.53 527.267 1774.73 543C1765.93 558.733 1752.87 582.067 1745.8 594.6C1738.73 607.267 1733 617.933 1733 618.333C1733 618.6 1734.73 621.667 1737 625.133C1739.53 629.267 1741.27 633.933 1741.8 639L1742.6 646.6L1752.2 651.133C1769 659.4 1845.27 697.933 1858.73 705.133L1871.93 712.2L1876.33 707.8C1878.87 705.267 1883.93 702.2 1887.67 701C1891.4 699.8 1894.73 698.067 1895 697.133C1895.27 696.333 1895.8 665.933 1896.2 629.533L1897 563.267L1893.8 562.467C1889.27 561.4 1883 555.8 1881.13 551.4C1879.93 548.6 1876.33 546.067 1866.07 541C1858.6 537.267 1840.2 527.933 1825.13 519.933C1810.07 512.067 1797.4 505.667 1796.87 505.667C1796.33 505.667 1794.73 507.667 1793.27 509.933Z" fill="#FFFFFF"/>
<path d="M2073.67 546.467C2062.73 558.6 2044.47 578.467 2033.4 590.733C2022.2 603 2013 613.933 2013 615.133C2013 616.333 2013.8 617.933 2014.73 618.733C2016.33 620.067 2084.87 634.333 2085.67 633.4C2086.33 632.6 2091.53 598.733 2093 584.867C2094.6 569.667 2095.8 524.333 2094.47 524.467C2094.07 524.467 2084.73 534.467 2073.67 546.467Z" fill="#FFFFFF"/>
<path d="M1900.2 529.667C1896.47 531.133 1893 536.067 1893 540.067C1893 544.333 1898.73 549.667 1903.27 549.667C1907.67 549.667 1909 548.733 1912.07 544.333C1915.13 539.933 1914.87 537.133 1911.4 533.133C1907.8 529.267 1904.07 528.067 1900.2 529.667Z" fill="#FFFFFF"/>
<path d="M1910.2 589.267C1910.2 599.4 1909.67 628.333 1909.13 653.667C1908.07 698.733 1908.33 703 1912.2 703C1913.4 703 1931.8 683.4 1969.4 642.2C1974.33 636.6 1974.33 636.6 1972.73 630.467C1971.53 625.8 1971.53 623 1972.6 618.733C1974.47 611.667 1974.33 611.533 1960.33 602.467C1935.8 586.467 1911.67 571 1911 571C1910.6 571 1910.33 579.267 1910.2 589.267Z" fill="#FFFFFF"/>
<path d="M1704.2 627.533C1698.2 630.2 1695.67 634.6 1695.67 641.933C1695.67 647.133 1696.47 649.133 1699.53 652.6C1703 656.467 1704.2 657 1710.33 657C1716.6 657 1717.67 656.6 1721.93 651.8C1726.2 647.133 1726.6 646.2 1725.93 640.733C1724.73 629.8 1713.8 623.267 1704.2 627.533Z" fill="#FFFFFF"/>
<path d="M2010.6 636.6C2007.4 642.067 1998.2 646.2 1990.87 645.267L1985 644.6L1973.27 657.533C1958.07 674.333 1933.67 701 1927.8 707.267L1923.27 712.2L1925.67 717.8C1927.13 720.733 1928.47 725.667 1928.87 728.6L1929.67 733.933L1961.93 748.333L1994.07 762.6L1999.13 757.267C2006.2 749.933 2013 747 2024.07 747C2031.13 747 2034.6 747.8 2039.8 750.467C2043.53 752.333 2046.87 753.667 2047.13 753.4C2048.47 751.933 2061.4 723.267 2066.73 709.667C2075 688.6 2075.27 687.267 2071.8 684.867C2061.53 677.667 2061.13 657 2071 647.8L2074.33 644.6L2061.4 642.333C2054.2 641.133 2040.33 638.467 2030.6 636.467L2012.87 632.867L2010.6 636.6Z" fill="#FFFFFF"/>
<path d="M1733.67 663.933C1727.93 670.867 1720.2 673.933 1709.53 673.533L1700.73 673.267L1695.4 682.467C1692.33 687.533 1685.27 699.8 1679.67 709.667C1674.07 719.533 1666.6 732.467 1663.13 738.2L1656.87 748.733L1664.6 747.8C1715.4 741.8 1748.33 737.933 1797.67 732.333C1829.93 728.6 1858.73 725.133 1861.67 724.6C1867 723.667 1866.2 723.267 1803.67 691.667C1768.87 674.067 1739.8 659.533 1739 659.4C1738.33 659.267 1735.93 661.267 1733.67 663.933Z" fill="#FFFFFF"/>
<path d="M1889.4 719C1883.27 722.6 1881.13 730.2 1884.33 736.867C1889.67 748.067 1904.47 748.467 1910.87 737.667C1914.47 731.533 1913.67 726.067 1908.47 720.867C1903.13 715.533 1896.2 714.733 1889.4 719Z" fill="#FFFFFF"/>
<path d="M1922.47 750.867C1916.6 759.133 1901.8 764.467 1892.47 761.8L1887.67 760.6L1875.93 773.933C1869.53 781.4 1862.2 789.933 1859.67 792.867C1857.13 795.933 1851 803 1845.93 808.6L1836.87 818.867L1838.33 824.467C1840.6 832.733 1837.93 842.067 1831.53 848.467C1826.6 853.4 1817.27 857.267 1813.53 855.8C1811.8 855.133 1802.6 864.867 1780.87 890.333C1769.93 903.267 1757.53 917.533 1713.27 969C1697.53 987.133 1685 1002.07 1685.27 1002.33C1686.07 1003 1722.33 995.133 1740.33 990.333C1775.27 981.133 1810.87 968.6 1811.27 965.4C1811.4 964.467 1811.93 960.733 1812.33 957.267C1813.4 949.533 1819.13 942.333 1827.4 938.733C1830.47 937.4 1833 935.4 1833 934.467C1833 932.333 1848.33 882.467 1850.33 877.8C1851.53 875 1851.13 873.667 1847.8 868.867C1842.07 861 1841.93 851.133 1847.53 843.4C1853.93 834.467 1865.53 831.133 1874.2 835.667C1877.93 837.533 1878.73 837.133 1907.13 821.533C1923.13 812.733 1948.07 799.267 1962.6 791.4C1977.13 783.667 1989 776.867 1989 776.067C1989 775.4 1984.07 772.6 1978.07 769.8C1966.2 764.333 1926.33 747 1925.67 747C1925.4 747 1923.93 748.733 1922.47 750.867Z" fill="#FFFFFF"/>
<path d="M2017.4 767.667C2012.33 769.8 2007.67 776.733 2007.67 782.067C2007.67 787.8 2011.13 794.067 2015.8 796.867C2019.67 799.133 2019.93 799.133 2022.47 796.867C2023.93 795.533 2027.93 790.067 2031.13 784.733C2038.07 773.8 2038.07 771.133 2031.13 767.8C2025.67 765.267 2023 765.133 2017.4 767.667Z" fill="#FFFFFF"/>
<path d="M1959 808.467C1942.87 817.267 1919.93 829.933 1908.07 836.6L1886.33 848.733V855.4C1886.33 859.667 1885.27 863.8 1883.53 867C1880.47 872.467 1872.6 877.667 1867.27 877.667C1864.07 877.667 1863.53 878.6 1861 887.267C1859.4 892.6 1857.67 898.467 1857 900.333C1856.33 902.2 1853.67 910.867 1851 919.667C1848.33 928.467 1845.93 936.467 1845.67 937.4C1845.27 938.333 1846.07 939.533 1847.4 939.933C1848.6 940.333 1850.87 941.8 1852.33 943.133C1854.87 945.4 1855.67 945 1876.47 931.933C1888.33 924.467 1902.07 915.4 1907.13 911.8C1919.93 902.6 1943.4 884.467 1944.33 883C1944.73 882.467 1944.07 880.2 1943 878.2C1934.87 862.6 1950.07 841.8 1968.2 843.4C1971.93 843.667 1976.2 844.333 1977.67 844.733C1979.8 845.4 1983.13 842.467 1993.93 830.733L2007.53 815.8L2001.27 809.667C1997.8 806.2 1993.8 801 1992.47 797.933C1991 794.867 1989.53 792.333 1989.13 792.333C1988.73 792.333 1975.13 799.667 1959 808.467Z" fill="#FFFFFF"/>
<path d="M1807.93 824.733C1804.47 828.333 1804.2 833.267 1807 837.267C1812.2 844.733 1824.87 840.333 1825 830.867C1825 822.6 1813.8 818.467 1807.93 824.733Z" fill="#FFFFFF"/>
<path d="M172.852 653.792C156.297 653.792 141.023 649.952 127.028 642.272C113.204 634.421 102.196 623.584 94.004 609.76C85.9827 595.765 81.972 580.064 81.972 562.656C81.972 545.248 85.9827 529.632 94.004 515.808C102.196 501.984 113.204 491.232 127.028 483.552C141.023 475.701 156.297 471.776 172.852 471.776C189.577 471.776 204.852 475.701 218.676 483.552C232.671 491.232 243.679 501.984 251.7 515.808C259.721 529.632 263.732 545.248 263.732 562.656C263.732 580.064 259.721 595.765 251.7 609.76C243.679 623.584 232.671 634.421 218.676 642.272C204.852 649.952 189.577 653.792 172.852 653.792ZM172.852 628.448C184.628 628.448 195.124 625.803 204.34 620.512C213.556 615.051 220.724 607.371 225.844 597.472C231.135 587.403 233.78 575.797 233.78 562.656C233.78 549.515 231.135 537.995 225.844 528.096C220.724 518.197 213.556 510.603 204.34 505.312C195.124 500.021 184.628 497.376 172.852 497.376C161.076 497.376 150.58 500.021 141.364 505.312C132.148 510.603 124.895 518.197 119.604 528.096C114.484 537.995 111.924 549.515 111.924 562.656C111.924 575.797 114.484 587.403 119.604 597.472C124.895 607.371 132.148 615.051 141.364 620.512C150.58 625.803 161.076 628.448 172.852 628.448ZM429.666 527.072C429.666 536.117 427.533 544.651 423.266 552.672C418.999 560.693 412.173 567.264 402.786 572.384C393.399 577.333 381.367 579.808 366.69 579.808H334.434V652H305.25V474.08H366.69C380.343 474.08 391.863 476.469 401.25 481.248C410.807 485.856 417.89 492.171 422.498 500.192C427.277 508.213 429.666 517.173 429.666 527.072ZM366.69 556C377.783 556 386.061 553.525 391.522 548.576C396.983 543.456 399.714 536.288 399.714 527.072C399.714 507.616 388.706 497.888 366.69 497.888H334.434V556H366.69ZM575.004 474.08V497.888H499.484V550.368H558.364V574.176H499.484V652H470.3V474.08H575.004ZM722.114 615.648H647.618L634.818 652H604.354L668.098 473.824H701.89L765.634 652H734.914L722.114 615.648ZM713.922 591.84L684.994 509.152L655.81 591.84H713.922ZM835.334 474.08V652H806.15V474.08H835.334ZM978.866 652L937.906 580.832H915.634V652H886.45V474.08H947.89C961.543 474.08 973.063 476.469 982.45 481.248C992.007 486.027 999.09 492.427 1003.7 500.448C1008.48 508.469 1010.87 517.429 1010.87 527.328C1010.87 538.933 1007.45 549.515 1000.63 559.072C993.97 568.459 983.645 574.859 969.65 578.272L1013.68 652H978.866ZM915.634 557.536H947.89C958.813 557.536 967.005 554.805 972.466 549.344C978.098 543.883 980.914 536.544 980.914 527.328C980.914 518.112 978.183 510.944 972.722 505.824C967.261 500.533 958.983 497.888 947.89 497.888H915.634V557.536Z" fill="#FFFFFF"/>
<path d="M2301.49 612.32C2317.87 598.155 2330.76 586.549 2340.14 577.504C2349.7 568.288 2357.64 558.731 2363.95 548.832C2370.27 538.933 2373.42 529.035 2373.42 519.136C2373.42 508.896 2370.95 500.875 2366 495.072C2361.22 489.269 2353.63 486.368 2343.22 486.368C2333.15 486.368 2325.3 489.611 2319.66 496.096C2314.2 502.411 2311.3 510.944 2310.96 521.696H2282.8C2283.31 502.24 2289.11 487.392 2300.21 477.152C2311.47 466.741 2325.72 461.536 2342.96 461.536C2361.56 461.536 2376.07 466.656 2386.48 476.896C2397.06 487.136 2402.35 500.789 2402.35 517.856C2402.35 530.144 2399.19 542.005 2392.88 553.44C2386.74 564.704 2379.31 574.859 2370.61 583.904C2362.07 592.779 2351.15 603.104 2337.84 614.88L2326.32 625.12H2407.47V649.44H2283.06V628.192L2301.49 612.32ZM2445.91 556.256C2445.91 526.731 2450.86 503.691 2460.76 487.136C2470.83 470.411 2488.06 462.048 2512.47 462.048C2536.88 462.048 2554.03 470.411 2563.93 487.136C2574 503.691 2579.03 526.731 2579.03 556.256C2579.03 586.123 2574 609.504 2563.93 626.4C2554.03 643.125 2536.88 651.488 2512.47 651.488C2488.06 651.488 2470.83 643.125 2460.76 626.4C2450.86 609.504 2445.91 586.123 2445.91 556.256ZM2550.36 556.256C2550.36 542.432 2549.42 530.741 2547.54 521.184C2545.84 511.627 2542.25 503.861 2536.79 497.888C2531.33 491.744 2523.22 488.672 2512.47 488.672C2501.72 488.672 2493.61 491.744 2488.15 497.888C2482.69 503.861 2479.02 511.627 2477.14 521.184C2475.44 530.741 2474.58 542.432 2474.58 556.256C2474.58 570.592 2475.44 582.624 2477.14 592.352C2478.85 602.08 2482.43 609.931 2487.89 615.904C2493.53 621.877 2501.72 624.864 2512.47 624.864C2523.22 624.864 2531.33 621.877 2536.79 615.904C2542.42 609.931 2546.09 602.08 2547.8 592.352C2549.5 582.624 2550.36 570.592 2550.36 556.256ZM2638.84 612.32C2655.22 598.155 2668.11 586.549 2677.49 577.504C2687.05 568.288 2694.99 558.731 2701.3 548.832C2707.62 538.933 2710.77 529.035 2710.77 519.136C2710.77 508.896 2708.3 500.875 2703.35 495.072C2698.57 489.269 2690.98 486.368 2680.57 486.368C2670.5 486.368 2662.65 489.611 2657.01 496.096C2651.55 502.411 2648.65 510.944 2648.31 521.696H2620.15C2620.66 502.24 2626.46 487.392 2637.56 477.152C2648.82 466.741 2663.07 461.536 2680.31 461.536C2698.91 461.536 2713.42 466.656 2723.83 476.896C2734.41 487.136 2739.7 500.789 2739.7 517.856C2739.7 530.144 2736.54 542.005 2730.23 553.44C2724.09 564.704 2716.66 574.859 2707.96 583.904C2699.42 592.779 2688.5 603.104 2675.19 614.88L2663.67 625.12H2744.82V649.44H2620.41V628.192L2638.84 612.32ZM2779.68 613.088V591.072L2865.69 467.68H2901.02V587.744H2924.83V613.088H2901.02V652H2872.35V613.088H2779.68ZM2873.63 497.376L2813.21 587.744H2873.63V497.376Z" fill="#FFFFFF"/>
</svg>
